<svg id="svg" version="1.1" xmlns="http://www.w3.org/2000/svg" xmlns:xlink="http://www.w3.org/1999/xlink" width="400" height="413.2387706855792" viewBox="0, 0, 400,413.2387706855792"><g id="svgg"><path id="path0" d="M272.400 16.238 C 261.012 17.017,248.767 20.045,242.804 23.557 C 241.372 24.400,238.170 26.123,235.688 27.385 C 233.196 28.653,230.242 30.521,229.088 31.558 C 227.940 32.591,226.190 34.019,225.200 34.733 C 222.120 36.953,214.162 44.669,212.067 47.467 C 208.283 52.519,208.545 48.069,208.717 104.300 L 208.868 153.600 213.891 153.600 L 218.914 153.600 218.715 129.506 C 218.477 100.718,218.313 101.699,224.196 96.844 C 226.731 94.752,226.840 94.584,227.837 91.244 C 234.763 68.030,250.323 53.887,273.930 49.347 C 286.829 46.867,301.459 50.904,315.646 60.858 C 334.717 74.239,342.547 103.138,333.338 126.156 C 329.733 135.165,322.625 145.239,317.698 148.321 C 316.654 148.974,314.540 150.523,313.000 151.764 C 300.387 161.926,280.750 164.464,263.226 158.198 C 255.925 155.587,256.414 155.318,256.406 161.954 C 256.391 173.976,254.368 173.352,293.000 173.242 C 321.621 173.161,331.857 173.436,336.200 174.402 C 339.203 175.070,340.405 177.607,341.243 185.050 L 341.716 189.258 343.887 187.129 C 348.066 183.031,356.644 170.729,359.991 164.033 C 361.137 161.741,362.493 159.203,363.005 158.392 C 378.149 134.402,380.574 101.959,369.358 73.416 C 364.240 60.394,351.528 43.382,341.400 36.002 C 340.080 35.040,337.380 33.041,335.400 31.559 C 327.641 25.753,312.915 19.321,304.000 17.844 C 296.060 16.528,280.047 15.714,272.400 16.238 M115.988 58.423 C 115.684 58.991,115.635 61.288,115.831 65.830 L 116.115 72.412 127.158 72.306 L 138.200 72.200 138.310 65.692 C 138.378 61.657,138.259 58.884,137.996 58.392 C 137.322 57.133,116.663 57.162,115.988 58.423 M116.000 148.000 L 116.000 152.000 127.000 152.000 L 138.000 152.000 138.000 148.000 L 138.000 144.000 127.000 144.000 L 116.000 144.000 116.000 148.000 M319.500 203.076 C 318.896 203.234,318.800 203.775,318.800 207.029 L 318.800 210.800 324.400 210.800 L 330.000 210.800 330.000 207.054 L 330.000 203.309 328.144 203.054 C 326.099 202.774,320.602 202.788,319.500 203.076 M36.667 203.467 C 36.520 203.613,36.400 205.323,36.400 207.267 L 36.400 210.800 42.000 210.800 L 47.600 210.800 47.600 207.000 L 47.600 203.200 42.267 203.200 C 39.333 203.200,36.813 203.320,36.667 203.467 M89.777 236.805 C 85.049 237.470,81.195 242.002,81.204 246.887 C 81.220 255.835,92.421 260.352,98.749 253.962 C 105.646 246.998,99.594 235.424,89.777 236.805 M269.667 237.841 C 263.042 241.143,262.257 250.383,268.219 254.891 C 276.292 260.996,287.538 252.861,284.000 243.475 C 281.790 237.611,275.272 235.049,269.667 237.841 M381.417 300.700 C 381.267 301.525,380.731 303.114,380.226 304.232 L 379.307 306.263 375.153 306.761 C 357.290 308.901,354.555 310.151,342.230 321.800 C 331.418 332.020,329.982 333.316,329.742 333.075 C 329.633 332.966,329.318 327.133,329.041 320.112 C 328.765 313.092,328.407 307.134,328.246 306.874 C 327.660 305.927,308.800 306.230,308.800 307.186 C 308.800 308.842,310.437 316.194,312.989 326.000 C 318.799 348.322,318.794 349.193,312.748 366.968 C 308.255 380.178,305.013 384.566,297.713 387.326 L 295.400 388.200 150.500 388.302 L 5.600 388.404 5.600 398.005 L 5.600 407.605 151.100 407.503 L 296.600 407.400 300.000 406.265 C 313.919 401.617,322.872 391.686,331.069 371.800 C 332.066 369.380,333.314 366.450,333.841 365.288 C 334.368 364.127,334.800 363.104,334.800 363.016 C 334.800 362.928,335.361 361.628,336.046 360.128 C 348.956 331.856,358.818 320.600,370.672 320.609 C 374.863 320.612,374.780 320.451,373.255 325.655 C 372.541 328.094,372.012 330.146,372.081 330.215 C 372.151 330.284,375.805 328.254,380.204 325.705 C 384.602 323.155,389.145 320.545,390.300 319.905 C 392.964 318.427,393.222 319.418,387.335 308.550 C 381.906 298.529,381.829 298.427,381.417 300.700 M190.800 306.390 C 174.030 308.230,167.239 315.810,163.190 337.211 C 157.270 368.506,158.508 373.560,172.861 376.662 C 188.957 380.141,206.033 374.259,210.971 363.536 C 216.484 351.564,221.288 322.570,218.811 316.220 C 215.852 308.633,205.015 304.831,190.800 306.390 M45.771 307.332 C 45.365 308.390,42.947 322.414,43.138 322.604 C 43.245 322.712,45.795 322.800,48.805 322.800 C 56.966 322.800,56.651 321.158,52.609 342.600 C 48.723 363.219,46.400 375.756,46.400 376.111 C 46.400 376.270,51.080 376.400,56.800 376.400 C 62.520 376.400,67.200 376.255,67.200 376.077 C 67.200 375.900,67.573 373.785,68.028 371.377 C 68.483 368.970,69.366 364.210,69.990 360.800 C 70.614 357.390,71.787 351.090,72.597 346.800 C 73.407 342.510,74.672 335.697,75.409 331.660 C 77.176 321.978,76.138 322.800,86.600 322.800 C 97.571 322.800,97.119 322.407,95.580 330.623 C 95.128 333.030,94.243 337.790,93.612 341.200 C 92.981 344.610,91.810 350.910,91.011 355.200 C 88.706 367.575,87.213 375.775,87.206 376.100 C 87.203 376.265,93.137 376.400,100.392 376.400 L 113.585 376.400 113.782 375.500 C 113.891 375.005,114.353 372.530,114.810 370.000 C 117.429 355.477,118.067 352.222,118.424 351.556 C 119.572 349.411,124.427 349.408,125.574 351.552 C 125.897 352.155,128.000 373.030,128.000 375.630 C 128.000 376.370,128.398 376.400,138.200 376.400 C 146.396 376.400,148.400 376.296,148.400 375.871 C 148.400 375.579,147.947 371.934,147.392 367.771 C 144.252 344.180,144.322 345.802,146.393 344.605 C 152.696 340.962,156.851 331.831,156.953 321.400 C 157.040 312.547,153.585 308.434,145.000 307.170 C 140.777 306.548,46.012 306.703,45.771 307.332 M230.000 341.600 L 230.000 376.400 249.107 376.400 L 268.214 376.400 269.100 374.100 C 269.961 371.866,274.389 360.499,277.398 352.800 C 278.215 350.710,281.232 342.970,284.103 335.600 C 286.974 328.230,290.025 320.400,290.882 318.200 C 291.740 316.000,292.952 312.850,293.575 311.200 C 294.199 309.550,294.839 307.885,294.998 307.500 C 295.269 306.841,294.462 306.800,281.296 306.800 L 267.307 306.800 266.035 310.900 C 265.336 313.155,264.338 316.350,263.819 318.000 C 263.299 319.650,262.031 323.790,261.000 327.200 C 259.969 330.610,258.260 336.190,257.202 339.600 C 256.143 343.010,254.727 347.600,254.055 349.800 C 252.518 354.828,250.935 356.073,248.870 353.874 C 248.015 352.964,248.000 352.733,247.999 340.374 C 247.999 333.458,247.880 323.075,247.735 317.300 L 247.472 306.800 238.736 306.800 L 230.000 306.800 230.000 341.600 M132.600 320.223 C 138.096 323.051,136.913 333.109,130.888 334.782 C 128.374 335.480,115.951 335.321,114.889 334.577 C 112.981 333.241,113.695 320.447,115.726 319.583 C 117.550 318.808,130.828 319.311,132.600 320.223 M197.898 321.336 C 201.410 323.552,201.432 329.072,197.995 345.067 C 194.415 361.725,193.183 363.621,185.954 363.591 C 181.141 363.572,179.023 361.547,179.125 357.063 C 179.321 348.481,183.613 327.059,185.771 323.891 C 188.332 320.131,194.074 318.921,197.898 321.336 " stroke="none" fill="#f35b05" fill-rule="evenodd"></path><path id="path1" d="M266.200 0.429 C 261.535 0.762,254.469 1.886,253.800 2.403 C 253.580 2.572,251.780 3.108,249.800 3.593 C 247.820 4.078,245.840 4.701,245.400 4.977 C 244.960 5.253,243.880 5.713,243.000 6.000 C 242.120 6.287,240.388 7.034,239.151 7.661 C 237.913 8.287,236.799 8.800,236.675 8.800 C 236.082 8.800,228.518 12.575,227.397 13.430 C 226.697 13.963,225.950 14.400,225.738 14.400 C 225.525 14.400,225.002 14.721,224.575 15.113 C 224.149 15.505,223.080 16.266,222.200 16.805 C 221.320 17.344,220.206 18.126,219.724 18.543 C 219.243 18.961,218.508 19.504,218.092 19.751 C 216.511 20.689,213.600 22.967,213.600 23.267 C 213.600 23.439,213.105 23.844,212.500 24.166 C 210.611 25.174,205.716 29.708,203.814 32.211 C 203.162 33.069,202.352 34.058,202.014 34.408 C 201.676 34.758,200.770 35.824,200.000 36.777 C 199.230 37.729,198.090 39.066,197.467 39.748 C 196.845 40.429,196.041 41.485,195.681 42.093 C 195.322 42.702,194.889 43.200,194.719 43.200 C 194.550 43.200,194.145 43.836,193.820 44.614 L 193.229 46.028 123.115 45.994 C 56.818 45.962,50.400 46.035,50.400 46.823 C 50.400 47.001,49.995 47.274,49.500 47.430 C 48.240 47.828,45.427 50.858,44.831 52.461 C 44.557 53.197,44.166 54.116,43.962 54.503 C 43.172 55.995,42.733 65.988,42.864 79.484 L 43.000 93.470 44.148 95.126 C 45.767 97.461,46.077 97.647,48.771 97.891 C 51.479 98.136,53.438 97.541,53.814 96.357 C 53.946 95.941,54.193 95.600,54.363 95.600 C 56.013 95.600,56.613 88.167,56.012 75.150 C 55.460 63.190,55.736 59.183,57.165 58.419 C 58.552 57.676,66.068 57.508,84.940 57.797 L 104.400 58.095 104.418 68.747 C 104.446 85.963,102.763 84.727,126.400 84.887 C 150.412 85.050,149.769 85.529,149.789 67.501 L 149.800 58.001 173.900 58.001 L 198.000 58.000 198.000 105.052 L 198.000 152.103 194.058 151.824 C 190.799 151.593,156.834 151.524,151.400 151.737 L 149.800 151.800 149.592 144.200 C 149.444 138.805,149.222 136.310,148.829 135.600 C 148.169 134.410,146.390 132.801,145.733 132.800 C 145.477 132.800,145.200 132.599,145.118 132.353 C 144.593 130.780,110.193 130.821,109.668 132.395 C 109.594 132.618,109.289 132.800,108.990 132.800 C 105.538 132.800,104.400 135.679,104.400 144.414 C 104.400 148.366,104.265 151.606,104.100 151.614 C 92.976 152.149,56.349 151.680,56.115 151.000 C 55.964 150.560,55.891 142.152,55.953 132.315 C 56.066 114.432,55.774 110.000,54.484 110.000 C 54.322 110.000,54.012 109.595,53.795 109.100 C 52.760 106.741,47.252 106.749,45.301 109.111 C 43.077 111.805,43.117 111.425,42.891 132.283 C 42.705 149.492,42.610 151.672,42.041 151.966 C 41.688 152.148,39.337 152.390,36.815 152.504 C 33.984 152.632,32.173 152.882,32.081 153.156 C 32.000 153.400,31.665 153.600,31.338 153.600 C 30.624 153.600,27.200 155.555,27.200 155.963 C 27.200 156.120,26.835 156.641,26.389 157.120 C 24.736 158.894,24.677 160.261,24.554 199.200 C 24.430 238.662,24.488 240.130,26.281 243.078 C 28.668 247.004,34.261 251.600,36.651 251.600 C 36.953 251.600,37.200 251.757,37.200 251.949 C 37.200 252.512,40.191 252.897,46.576 253.157 L 52.551 253.400 53.255 256.193 C 53.642 257.729,54.148 259.049,54.379 259.126 C 54.611 259.204,54.800 259.526,54.800 259.842 C 54.800 260.458,56.654 264.499,57.990 266.796 C 59.691 269.719,63.037 273.578,66.251 276.323 C 67.103 277.051,68.070 277.884,68.400 278.173 C 68.730 278.463,69.799 279.103,70.775 279.596 C 71.751 280.089,72.756 280.697,73.007 280.946 C 73.259 281.196,74.530 281.753,75.832 282.185 C 77.134 282.616,78.290 283.095,78.401 283.248 C 79.986 285.446,100.990 285.415,104.200 283.210 C 104.420 283.059,105.754 282.524,107.165 282.022 C 108.576 281.520,110.095 280.770,110.541 280.355 C 110.986 279.940,111.562 279.600,111.821 279.600 C 113.581 279.600,122.129 271.258,123.879 267.833 C 124.225 267.155,124.754 266.456,125.054 266.280 C 125.354 266.104,125.600 265.796,125.600 265.595 C 125.600 265.395,126.223 263.918,126.984 262.314 C 128.190 259.775,128.673 258.161,129.447 254.091 L 129.620 253.182 179.310 253.291 C 233.807 253.411,230.015 253.231,232.665 255.816 C 233.861 256.983,235.012 258.808,237.445 263.400 C 238.028 264.500,238.637 265.490,238.799 265.600 C 238.960 265.710,239.485 266.574,239.964 267.519 C 240.444 268.465,241.098 269.339,241.418 269.462 C 241.738 269.585,242.000 269.912,242.000 270.190 C 242.000 271.223,251.164 280.000,252.243 280.000 C 252.527 280.000,252.904 280.238,253.080 280.529 C 253.649 281.470,260.114 284.347,263.200 285.032 C 264.850 285.399,266.622 285.896,267.137 286.137 C 268.391 286.723,279.232 286.715,280.463 286.127 C 280.978 285.881,282.840 285.384,284.600 285.022 C 286.360 284.660,289.112 283.742,290.715 282.982 C 292.319 282.222,293.782 281.600,293.966 281.600 C 294.151 281.600,294.529 281.327,294.806 280.993 C 295.083 280.659,295.870 280.116,296.555 279.788 C 300.173 278.052,306.613 271.171,309.805 265.630 C 310.028 265.243,310.748 264.238,311.405 263.396 C 312.062 262.555,313.449 260.771,314.486 259.433 C 315.523 258.095,316.625 256.730,316.934 256.400 C 317.243 256.070,317.794 255.215,318.158 254.500 C 318.777 253.285,318.956 253.200,320.910 253.197 C 323.334 253.193,327.839 252.545,329.000 252.031 C 329.440 251.837,330.822 251.285,332.070 250.805 C 333.319 250.324,334.439 249.677,334.558 249.366 C 334.677 249.054,335.032 248.800,335.346 248.800 C 336.214 248.800,338.306 246.207,339.610 243.514 C 341.236 240.157,341.600 237.669,341.600 229.899 L 341.600 223.144 342.744 221.472 C 343.373 220.552,344.207 219.170,344.598 218.400 C 344.989 217.630,345.554 216.856,345.854 216.680 C 346.154 216.504,346.400 216.166,346.400 215.929 C 346.400 215.691,347.120 214.442,348.000 213.153 C 348.880 211.864,349.600 210.661,349.600 210.480 C 349.600 210.299,349.915 209.793,350.300 209.355 C 350.685 208.917,351.225 208.163,351.500 207.680 C 351.775 207.196,352.225 206.404,352.500 205.920 C 352.775 205.437,353.315 204.683,353.700 204.245 C 354.085 203.807,354.400 203.301,354.400 203.120 C 354.400 202.939,355.120 201.736,356.000 200.447 C 356.880 199.158,357.600 197.956,357.600 197.777 C 357.600 197.598,357.934 197.080,358.342 196.626 C 358.750 196.172,359.515 194.990,360.042 194.000 C 360.569 193.010,361.115 192.110,361.255 192.000 C 361.734 191.625,363.953 187.807,365.033 185.500 C 365.625 184.235,366.222 183.200,366.360 183.200 C 366.498 183.200,367.055 182.264,367.598 181.120 C 368.142 179.977,368.994 178.600,369.493 178.062 C 369.992 177.524,370.400 176.873,370.400 176.617 C 370.400 176.361,370.724 175.802,371.120 175.375 C 371.516 174.949,372.281 173.790,372.820 172.800 C 373.359 171.810,374.002 170.820,374.248 170.600 C 374.494 170.380,375.111 169.345,375.619 168.300 C 376.126 167.255,376.659 166.400,376.803 166.400 C 376.946 166.400,377.485 165.500,378.000 164.400 C 378.515 163.300,379.061 162.400,379.214 162.400 C 379.366 162.400,379.992 161.275,380.605 159.900 C 381.218 158.525,381.850 157.310,382.010 157.200 C 382.169 157.090,382.718 156.010,383.229 154.800 C 383.740 153.590,384.276 152.510,384.420 152.400 C 384.564 152.290,385.202 150.670,385.837 148.800 C 386.473 146.930,387.114 145.309,387.263 145.197 C 387.605 144.940,389.200 138.739,389.200 137.667 C 389.200 137.227,389.363 136.807,389.563 136.733 C 392.489 135.659,392.569 84.148,389.648 82.000 C 389.498 81.890,388.952 80.090,388.434 78.000 C 387.916 75.910,387.380 74.110,387.244 74.000 C 387.108 73.890,386.649 72.720,386.224 71.400 C 385.020 67.663,379.953 56.696,378.980 55.723 C 378.661 55.404,378.400 54.953,378.400 54.720 C 378.400 54.487,377.680 53.242,376.800 51.953 C 375.920 50.664,375.200 49.446,375.200 49.247 C 375.200 49.047,374.753 48.460,374.207 47.942 C 373.661 47.424,373.211 46.801,373.207 46.558 C 373.203 46.316,372.795 45.679,372.300 45.144 C 371.805 44.609,371.110 43.727,370.755 43.185 C 368.115 39.152,357.225 28.008,351.552 23.534 C 349.329 21.781,346.677 19.841,345.400 19.033 C 344.740 18.616,344.056 18.032,343.880 17.737 C 343.704 17.442,343.387 17.200,343.176 17.200 C 342.964 17.200,341.736 16.480,340.447 15.600 C 339.158 14.720,337.934 14.000,337.727 14.000 C 337.520 14.000,336.994 13.685,336.558 13.300 C 335.553 12.412,333.609 11.217,332.700 10.929 C 332.315 10.807,332.000 10.570,332.000 10.402 C 332.000 10.234,331.415 9.866,330.700 9.584 C 329.985 9.301,328.345 8.558,327.055 7.933 C 325.766 7.308,323.696 6.505,322.455 6.150 C 321.215 5.794,320.015 5.357,319.790 5.177 C 319.564 4.998,317.404 4.374,314.990 3.791 C 312.575 3.208,310.240 2.571,309.800 2.376 C 305.417 0.429,281.309 -0.647,266.200 0.429 M296.600 16.809 C 310.728 18.398,325.127 23.872,335.400 31.559 C 337.380 33.041,340.080 35.040,341.400 36.002 C 351.528 43.382,364.240 60.394,369.358 73.416 C 380.574 101.959,378.149 134.402,363.005 158.392 C 362.493 159.203,361.137 161.741,359.991 164.033 C 356.644 170.729,348.066 183.031,343.887 187.129 L 341.716 189.258 341.243 185.050 C 340.405 177.607,339.203 175.070,336.200 174.402 C 331.857 173.436,321.621 173.161,293.000 173.242 C 254.368 173.352,256.391 173.976,256.406 161.954 C 256.414 155.318,255.925 155.587,263.226 158.198 C 280.750 164.464,300.387 161.926,313.000 151.764 C 314.540 150.523,316.654 148.974,317.698 148.321 C 322.625 145.239,329.733 135.165,333.338 126.156 C 342.547 103.138,334.717 74.239,315.646 60.858 C 295.626 46.811,276.909 45.100,255.769 55.384 C 243.101 61.547,232.722 74.871,227.837 91.244 C 226.840 94.584,226.731 94.752,224.196 96.844 C 218.313 101.699,218.477 100.718,218.715 129.506 L 218.914 153.600 213.891 153.600 L 208.868 153.600 208.717 104.300 C 208.545 48.069,208.283 52.519,212.067 47.467 C 214.162 44.669,222.120 36.953,225.200 34.733 C 226.190 34.019,227.940 32.591,229.088 31.558 C 230.242 30.521,233.196 28.653,235.688 27.385 C 238.170 26.123,241.372 24.400,242.804 23.557 C 248.767 20.045,261.012 17.017,272.400 16.238 C 276.091 15.985,292.774 16.379,296.600 16.809 M137.996 58.392 C 138.259 58.884,138.378 61.657,138.310 65.692 L 138.200 72.200 127.158 72.306 L 116.115 72.412 115.831 65.830 C 115.437 56.697,114.211 57.600,127.000 57.600 C 137.128 57.600,137.590 57.633,137.996 58.392 M288.924 66.585 C 290.642 66.891,292.262 67.311,292.524 67.518 C 292.786 67.725,293.990 68.210,295.200 68.596 C 296.410 68.983,297.940 69.619,298.600 70.010 C 299.260 70.401,300.486 71.102,301.324 71.567 C 303.029 72.514,302.780 72.330,306.600 75.458 C 308.140 76.720,309.537 77.975,309.705 78.248 C 309.872 78.522,310.817 79.692,311.805 80.849 C 312.792 82.006,313.600 83.179,313.600 83.456 C 313.600 83.733,313.840 84.104,314.133 84.280 C 314.427 84.456,315.102 85.500,315.633 86.600 C 316.164 87.700,316.708 88.690,316.840 88.800 C 317.069 88.989,317.804 91.176,319.465 96.600 C 320.344 99.470,320.536 110.788,319.734 112.440 C 319.478 112.968,318.970 114.660,318.606 116.200 C 317.637 120.299,315.600 124.416,315.600 122.275 C 315.600 121.987,315.240 121.364,314.800 120.892 C 314.360 120.420,314.000 119.931,314.000 119.806 C 314.000 119.682,313.190 117.869,312.200 115.779 C 311.210 113.688,310.400 111.872,310.400 111.743 C 310.400 111.452,306.662 103.865,305.661 102.126 C 304.593 100.268,302.442 97.911,301.030 97.050 C 300.353 96.637,299.710 96.187,299.600 96.050 C 299.206 95.558,296.453 94.446,294.940 94.168 C 294.093 94.012,293.271 93.686,293.114 93.442 C 292.911 93.127,285.965 93.000,268.996 93.000 L 245.163 93.000 245.396 92.000 C 246.534 87.115,253.656 77.440,258.567 74.108 C 259.465 73.499,260.417 72.795,260.683 72.545 C 261.554 71.726,266.960 68.958,268.800 68.390 C 269.790 68.084,270.698 67.696,270.817 67.527 C 271.716 66.260,283.624 65.640,288.924 66.585 M72.100 90.323 C 71.165 90.391,70.400 90.616,70.400 90.823 C 70.400 91.030,70.112 91.200,69.760 91.200 C 68.693 91.200,66.577 93.678,65.832 95.800 C 65.445 96.900,64.959 98.122,64.752 98.515 C 63.457 100.968,63.532 117.616,64.841 118.425 C 65.105 118.589,65.212 119.111,65.082 119.607 C 64.810 120.650,66.086 122.809,68.034 124.600 L 69.340 125.800 97.889 125.910 C 128.795 126.030,128.462 126.051,131.092 123.799 C 133.684 121.581,133.800 120.904,133.800 108.000 C 133.800 96.864,133.513 94.000,132.398 94.000 C 132.230 94.000,132.001 93.646,131.888 93.213 C 131.774 92.780,130.988 92.105,130.141 91.713 C 129.293 91.321,128.510 90.882,128.400 90.738 C 128.201 90.477,75.349 90.088,72.100 90.323 M146.700 93.076 C 146.315 93.176,146.000 93.425,146.000 93.629 C 146.000 93.833,145.761 94.000,145.470 94.000 C 141.845 94.000,142.449 103.450,146.160 104.783 C 147.661 105.323,183.273 105.353,185.144 104.816 C 190.508 103.278,190.346 95.232,184.909 93.165 C 183.958 92.804,148.062 92.720,146.700 93.076 M83.600 108.000 L 83.600 112.800 82.056 112.800 C 81.207 112.800,79.677 112.914,78.656 113.054 L 76.800 113.309 76.800 108.254 L 76.800 103.200 80.200 103.200 L 83.600 103.200 83.600 108.000 M102.400 108.000 L 102.400 112.800 98.800 112.800 L 95.200 112.800 95.200 108.000 L 95.200 103.200 98.800 103.200 L 102.400 103.200 102.400 108.000 M121.114 108.200 L 121.114 113.200 117.957 113.200 L 114.800 113.200 114.800 108.200 L 114.800 103.200 117.957 103.200 L 121.114 103.200 121.114 108.200 M245.082 105.119 C 245.451 105.353,245.592 113.125,245.682 138.013 L 245.800 170.600 246.962 172.970 C 248.275 175.647,252.645 180.473,254.423 181.210 C 255.070 181.478,255.600 181.841,255.600 182.016 C 255.600 184.259,272.320 185.232,305.238 184.907 C 323.868 184.722,328.739 184.778,328.987 185.179 C 329.159 185.456,329.388 186.795,329.497 188.153 C 329.785 191.745,329.692 191.790,322.197 191.654 C 315.099 191.525,312.987 192.150,309.818 195.318 C 307.247 197.890,307.238 197.928,307.142 206.646 C 307.036 216.288,306.878 215.849,312.238 220.815 C 313.936 222.387,316.304 222.886,323.100 223.099 L 329.600 223.304 329.593 225.552 C 329.554 239.111,328.597 240.398,318.556 240.399 L 312.511 240.400 312.278 238.431 C 312.150 237.347,311.865 236.132,311.644 235.731 C 311.424 235.329,310.863 233.796,310.397 232.325 C 309.932 230.854,309.427 229.594,309.276 229.525 C 309.124 229.456,308.567 228.590,308.038 227.600 C 306.634 224.972,305.795 223.945,301.800 219.962 C 297.305 215.480,296.577 214.800,296.271 214.800 C 296.137 214.800,294.913 214.080,293.551 213.200 C 292.190 212.320,290.915 211.600,290.719 211.600 C 290.522 211.600,289.605 211.224,288.681 210.764 C 281.806 207.346,271.254 206.899,261.800 209.627 C 260.920 209.881,260.110 210.216,260.000 210.372 C 259.890 210.528,258.990 210.970,258.000 211.354 C 256.199 212.054,251.264 214.871,249.862 216.000 C 248.131 217.395,243.127 222.601,242.504 223.655 C 242.132 224.285,241.700 224.800,241.543 224.800 C 241.387 224.800,241.009 225.295,240.703 225.900 C 239.817 227.654,239.022 228.983,238.725 229.208 C 238.334 229.505,236.800 233.162,236.800 233.800 C 236.800 234.093,236.605 234.398,236.366 234.478 C 236.128 234.557,235.728 235.922,235.478 237.511 L 235.023 240.400 232.944 240.400 C 231.801 240.400,230.581 240.291,230.233 240.157 C 229.523 239.885,229.247 107.176,229.954 106.060 C 230.632 104.992,243.612 104.184,245.082 105.119 M290.556 105.554 C 292.118 106.188,294.038 107.850,294.950 109.358 C 295.363 110.041,295.835 110.690,296.000 110.800 C 296.407 111.072,300.400 118.926,300.400 119.455 C 300.400 119.687,300.760 120.293,301.200 120.800 C 301.640 121.307,302.000 121.983,302.000 122.301 C 302.000 122.620,302.694 124.347,303.542 126.140 C 304.390 127.933,305.304 130.075,305.573 130.900 C 305.842 131.725,306.209 132.400,306.388 132.400 C 306.846 132.400,307.248 134.210,306.957 134.968 C 306.824 135.316,306.509 135.601,306.257 135.602 C 306.006 135.603,305.213 136.154,304.496 136.826 C 302.949 138.276,299.494 140.273,296.300 141.564 C 295.035 142.075,294.000 142.629,294.000 142.796 C 294.000 144.606,273.043 144.693,270.672 142.893 C 270.412 142.696,269.030 142.124,267.600 141.621 C 266.170 141.118,264.730 140.481,264.400 140.204 C 264.070 139.928,263.170 139.404,262.400 139.040 C 261.630 138.676,260.377 137.861,259.615 137.230 L 258.230 136.082 258.351 120.941 C 258.417 112.613,258.544 105.727,258.631 105.638 C 259.503 104.753,288.392 104.677,290.556 105.554 M149.600 111.055 C 148.830 111.156,147.633 111.499,146.940 111.819 C 146.246 112.138,145.513 112.400,145.309 112.400 C 143.236 112.400,142.230 118.508,143.929 120.787 C 145.832 123.341,146.187 123.400,159.726 123.400 L 172.052 123.400 173.389 121.898 C 175.885 119.092,175.608 114.597,172.800 112.364 L 171.400 111.250 161.200 111.062 C 155.590 110.958,150.370 110.955,149.600 111.055 M138.000 148.000 L 138.000 152.000 127.000 152.000 L 116.000 152.000 116.000 148.000 L 116.000 144.000 127.000 144.000 L 138.000 144.000 138.000 148.000 M217.200 168.200 L 217.200 172.000 202.780 172.000 C 184.839 172.000,185.142 171.890,185.240 178.360 C 185.310 182.989,186.358 183.967,191.276 183.992 C 192.088 183.997,192.864 184.180,193.000 184.400 C 193.155 184.650,197.196 184.800,203.800 184.800 C 210.404 184.800,214.445 184.650,214.600 184.400 C 214.736 184.180,215.377 184.000,216.024 184.000 L 217.200 184.000 217.200 212.200 L 217.200 240.400 174.062 240.400 C 133.476 240.400,130.888 240.359,130.317 239.700 C 129.983 239.315,129.233 237.020,128.650 234.600 C 128.066 232.180,127.411 230.140,127.194 230.067 C 126.978 229.993,126.800 229.735,126.800 229.493 C 126.800 228.795,125.109 225.478,124.318 224.625 C 123.923 224.198,123.600 223.690,123.600 223.496 C 123.600 223.016,117.942 216.400,117.532 216.400 C 117.353 216.400,116.725 215.860,116.137 215.200 C 115.549 214.540,114.884 214.000,114.660 214.000 C 114.435 214.000,113.880 213.654,113.426 213.232 C 112.188 212.080,107.338 209.661,104.820 208.940 C 103.599 208.590,102.420 208.167,102.200 208.001 C 100.187 206.478,84.097 206.458,81.296 207.975 C 80.913 208.182,79.269 208.736,77.642 209.205 C 76.016 209.674,74.428 210.315,74.114 210.629 C 73.800 210.943,73.323 211.200,73.055 211.200 C 71.070 211.200,58.800 221.691,58.800 223.389 C 58.800 223.540,58.195 224.595,57.455 225.732 C 56.715 226.869,55.771 228.790,55.358 230.000 C 54.945 231.210,54.502 232.290,54.374 232.400 C 54.097 232.639,52.975 236.788,52.618 238.900 L 52.364 240.400 48.236 240.400 C 38.176 240.400,37.360 239.589,36.926 229.154 L 36.683 223.307 43.241 223.101 C 50.017 222.888,52.574 222.365,54.050 220.889 C 54.429 220.510,55.495 219.480,56.420 218.600 C 59.042 216.103,59.200 215.438,59.200 206.862 C 59.200 194.029,57.247 191.972,44.800 191.690 C 36.573 191.503,36.800 191.615,36.800 187.751 L 36.800 184.800 103.376 184.800 C 147.329 184.800,170.037 184.664,170.200 184.400 C 170.336 184.180,170.820 184.000,171.276 184.000 C 172.570 184.000,175.600 180.741,175.598 179.353 C 175.595 177.751,174.865 175.284,174.284 174.911 C 174.018 174.740,173.602 174.240,173.361 173.800 C 172.345 171.950,174.765 172.012,103.900 172.006 L 36.800 172.000 36.800 168.620 C 36.800 165.823,36.921 165.169,37.500 164.832 C 37.970 164.558,67.651 164.420,127.700 164.412 L 217.200 164.400 217.200 168.200 M328.144 203.054 L 330.000 203.309 330.000 207.054 L 330.000 210.800 324.400 210.800 L 318.800 210.800 318.800 207.029 C 318.800 203.775,318.896 203.234,319.500 203.076 C 320.602 202.788,326.099 202.774,328.144 203.054 M47.600 207.000 L 47.600 210.800 42.000 210.800 L 36.400 210.800 36.400 207.267 C 36.400 202.880,35.938 203.200,42.267 203.200 L 47.600 203.200 47.600 207.000 M99.800 222.594 C 100.900 222.979,101.890 223.429,102.000 223.593 C 102.110 223.758,102.929 224.262,103.821 224.714 C 105.919 225.777,109.308 228.833,110.464 230.703 C 110.963 231.510,111.692 232.492,112.085 232.885 C 112.478 233.278,112.800 233.775,112.800 233.989 C 112.800 234.203,113.240 235.328,113.777 236.489 C 117.282 244.060,115.990 255.335,111.002 260.711 C 110.446 261.310,109.891 262.115,109.769 262.500 C 109.646 262.885,109.397 263.200,109.215 263.200 C 109.033 263.200,108.343 263.705,107.682 264.323 C 107.021 264.941,105.652 265.886,104.640 266.423 C 103.628 266.959,102.800 267.528,102.800 267.686 C 102.800 267.845,101.225 268.437,99.300 269.003 C 97.375 269.569,95.487 270.204,95.105 270.416 C 94.246 270.891,90.924 270.924,90.637 270.459 C 90.521 270.272,89.205 270.013,87.713 269.884 C 84.811 269.634,79.600 268.187,79.600 267.632 C 79.600 267.448,79.041 267.066,78.359 266.783 C 75.205 265.477,70.301 259.502,68.790 255.126 C 68.310 253.737,67.711 252.167,67.459 251.639 C 66.799 250.256,66.835 239.922,67.500 239.700 C 67.775 239.608,68.000 239.285,68.000 238.981 C 68.000 234.227,76.874 224.000,80.999 224.000 C 81.329 224.000,81.600 223.832,81.600 223.627 C 81.600 223.311,84.507 222.548,88.400 221.843 C 90.647 221.435,97.845 221.910,99.800 222.594 M280.051 223.448 C 280.353 223.683,281.453 224.107,282.496 224.389 C 286.219 225.396,292.788 230.667,294.895 234.337 C 300.234 243.635,299.483 254.205,292.854 263.084 C 291.834 264.450,290.730 265.667,290.400 265.788 C 290.070 265.909,289.214 266.525,288.498 267.158 C 287.782 267.791,286.162 268.719,284.898 269.220 C 283.634 269.721,282.420 270.265,282.200 270.430 C 279.670 272.320,268.775 272.301,265.261 270.400 C 264.897 270.204,263.688 269.607,262.573 269.075 C 258.862 267.302,254.711 263.615,253.107 260.667 C 252.608 259.750,252.051 258.891,251.869 258.757 C 248.045 255.952,250.262 234.806,254.645 232.280 C 254.950 232.104,255.200 231.731,255.200 231.451 C 255.200 230.816,258.924 227.309,260.231 226.713 C 260.764 226.470,261.200 226.142,261.200 225.985 C 261.200 225.827,262.325 225.286,263.700 224.784 C 265.075 224.281,266.380 223.736,266.600 223.573 C 267.707 222.753,279.023 222.647,280.051 223.448 M87.087 232.037 C 80.040 233.696,75.359 240.819,76.162 248.661 C 76.420 251.178,77.421 254.400,77.946 254.400 C 78.088 254.400,78.432 254.895,78.710 255.500 C 79.837 257.951,83.841 260.849,87.152 261.610 C 90.948 262.483,99.600 261.384,99.600 260.030 C 99.600 259.875,100.320 259.343,101.200 258.848 C 102.080 258.353,102.800 257.805,102.800 257.629 C 102.800 257.453,103.213 256.880,103.717 256.355 C 104.221 255.830,104.963 254.590,105.365 253.600 C 105.767 252.610,106.299 251.368,106.548 250.839 C 106.797 250.311,107.000 248.493,107.000 246.800 C 107.000 245.107,106.797 243.289,106.548 242.761 C 106.299 242.232,105.774 241.029,105.381 240.086 C 104.988 239.143,104.265 237.939,103.774 237.410 C 103.284 236.881,102.819 236.302,102.741 236.124 C 101.395 233.038,92.593 230.740,87.087 232.037 M270.600 231.844 C 268.605 232.347,265.639 233.721,265.442 234.234 C 265.323 234.546,264.965 234.800,264.647 234.800 C 263.843 234.800,260.949 238.533,260.366 240.323 C 260.101 241.135,259.686 241.928,259.443 242.085 C 258.790 242.506,258.843 251.281,259.500 251.500 C 259.775 251.592,260.002 251.967,260.005 252.333 C 260.016 253.922,263.915 259.200,265.077 259.200 C 265.378 259.200,265.728 259.469,265.854 259.797 C 266.815 262.300,280.400 262.623,282.244 260.187 C 282.488 259.864,282.885 259.600,283.125 259.600 C 283.760 259.600,287.600 255.661,287.600 255.010 C 287.600 254.706,287.843 254.214,288.140 253.918 C 290.021 252.036,290.254 240.000,288.409 240.000 C 288.237 240.000,287.873 239.459,287.599 238.797 C 285.650 234.092,276.513 230.355,270.600 231.844 M96.580 237.988 C 105.550 243.531,101.840 257.011,91.360 256.956 C 81.037 256.902,77.387 243.344,86.291 238.126 C 89.405 236.301,93.756 236.242,96.580 237.988 M278.640 237.563 C 285.660 240.751,286.692 250.454,280.492 254.987 C 273.650 259.990,264.182 255.237,264.259 246.837 C 264.327 239.409,271.921 234.511,278.640 237.563 M380.364 287.700 C 380.109 288.195,379.585 288.960,379.199 289.400 C 378.814 289.840,378.312 290.830,378.084 291.600 C 375.306 300.983,375.193 301.200,373.052 301.200 C 372.395 301.200,371.304 301.368,370.628 301.574 C 369.953 301.780,367.028 302.310,364.130 302.752 C 361.231 303.194,358.531 303.736,358.130 303.956 C 357.728 304.177,356.182 304.742,354.694 305.213 C 353.206 305.684,351.763 306.279,351.488 306.535 C 351.213 306.791,350.309 307.347,349.479 307.771 C 348.649 308.195,347.392 309.062,346.685 309.697 C 343.250 312.785,337.301 318.341,336.190 319.500 C 334.474 321.289,334.400 321.215,334.399 317.700 C 334.398 315.995,334.280 311.495,334.136 307.700 L 333.874 300.800 318.337 300.800 L 302.800 300.800 302.800 303.571 C 302.800 306.768,303.460 312.230,303.988 313.400 C 304.186 313.840,304.744 316.270,305.228 318.800 C 305.711 321.330,306.225 323.490,306.370 323.600 C 306.514 323.710,307.139 326.050,307.759 328.800 C 308.378 331.550,309.019 333.980,309.183 334.200 C 309.347 334.420,309.913 336.760,310.440 339.400 C 310.967 342.040,311.534 344.260,311.699 344.333 C 312.135 344.527,312.069 349.086,311.618 349.905 C 311.408 350.287,310.846 352.490,310.370 354.800 C 309.893 357.110,309.366 359.180,309.197 359.400 C 309.028 359.620,308.504 361.217,308.033 362.948 C 307.561 364.680,306.844 366.840,306.438 367.748 C 306.033 368.657,305.472 370.120,305.191 371.000 C 303.643 375.862,300.620 379.516,296.546 381.447 L 293.692 382.800 242.746 382.736 C 214.726 382.701,192.385 382.599,193.100 382.511 C 193.815 382.422,194.400 382.181,194.400 381.975 C 194.400 381.769,194.831 381.600,195.358 381.600 C 196.439 381.600,201.693 380.053,202.000 379.644 C 202.110 379.498,203.010 379.025,204.000 378.595 C 207.613 377.022,212.861 372.226,214.496 369.000 C 214.942 368.120,215.418 367.310,215.554 367.200 C 215.931 366.894,217.200 364.036,217.202 363.486 C 217.204 363.219,217.496 362.460,217.852 361.800 C 218.585 360.441,220.380 353.868,220.392 352.500 C 220.396 352.005,220.554 351.600,220.743 351.600 C 220.932 351.600,221.498 349.035,222.002 345.900 C 222.505 342.765,223.053 340.020,223.220 339.800 C 223.386 339.580,223.675 338.320,223.861 337.000 C 224.082 335.438,224.270 342.692,224.400 357.768 L 224.600 380.935 225.800 381.638 C 226.903 382.285,228.738 382.344,248.454 382.371 C 273.938 382.405,272.286 382.741,274.046 377.176 C 274.564 375.539,275.124 374.100,275.291 373.978 C 275.458 373.856,276.049 372.416,276.604 370.778 C 277.159 369.140,277.938 367.080,278.334 366.200 C 278.731 365.320,279.305 363.790,279.611 362.800 C 279.916 361.810,280.280 360.910,280.419 360.800 C 280.559 360.690,281.166 359.161,281.769 357.401 C 282.372 355.642,283.007 354.022,283.180 353.801 C 283.352 353.581,283.905 352.140,284.408 350.600 C 284.912 349.060,285.545 347.440,285.816 347.000 C 286.087 346.560,286.713 344.940,287.208 343.400 C 287.702 341.860,288.247 340.420,288.419 340.200 C 288.591 339.980,289.135 338.630,289.628 337.200 C 290.120 335.770,290.736 334.240,290.996 333.800 C 291.256 333.360,291.898 331.650,292.421 330.000 C 292.944 328.350,293.490 326.910,293.633 326.800 C 293.776 326.690,294.312 325.340,294.823 323.800 C 295.334 322.260,295.871 320.910,296.017 320.800 C 296.162 320.690,296.784 319.070,297.400 317.200 C 298.016 315.330,298.646 313.710,298.800 313.600 C 298.955 313.490,299.490 312.163,299.989 310.652 C 300.488 309.141,301.144 307.431,301.446 306.852 C 301.748 306.273,301.996 305.056,301.998 304.146 C 302.002 301.122,302.526 301.200,282.089 301.200 L 264.150 301.200 263.106 302.300 C 262.352 303.094,261.748 304.622,260.931 307.800 C 260.309 310.220,259.677 312.293,259.527 312.407 C 259.377 312.521,258.852 314.231,258.361 316.207 C 257.870 318.183,257.338 319.890,257.179 320.000 C 257.021 320.110,256.390 322.180,255.778 324.600 C 255.167 327.020,254.537 329.090,254.379 329.200 C 254.222 329.310,254.018 329.760,253.926 330.200 C 253.834 330.640,253.642 324.610,253.499 316.800 C 253.244 302.888,253.222 302.586,252.375 301.900 C 251.593 301.266,250.312 301.200,238.831 301.200 C 223.057 301.200,224.400 300.538,224.399 308.316 L 224.398 313.800 222.995 311.474 C 221.395 308.820,218.120 305.513,216.379 304.791 C 215.731 304.523,215.200 304.167,215.200 304.002 C 215.200 303.836,213.895 303.295,212.300 302.800 C 210.705 302.304,208.590 301.635,207.600 301.312 C 203.782 300.068,187.091 300.268,184.435 301.590 C 184.086 301.764,182.362 302.301,180.605 302.784 C 178.847 303.266,177.317 303.782,177.205 303.931 C 177.092 304.079,176.100 304.634,175.000 305.163 C 172.550 306.340,172.586 306.312,168.400 310.499 C 166.530 312.370,164.462 314.776,163.805 315.848 L 162.610 317.795 162.298 315.624 C 161.422 309.537,156.487 304.135,150.400 302.602 C 148.970 302.242,147.247 301.779,146.572 301.574 C 145.837 301.350,124.611 301.200,93.817 301.200 L 42.292 301.200 41.418 302.143 C 40.732 302.883,40.387 304.154,39.815 308.043 C 39.415 310.769,38.960 313.090,38.805 313.200 C 38.650 313.310,38.133 316.010,37.656 319.200 C 36.243 328.660,36.063 328.400,44.016 328.400 C 49.326 328.400,50.059 328.543,49.249 329.420 C 49.056 329.629,48.493 332.500,47.996 335.800 C 47.500 339.100,46.962 341.980,46.801 342.200 C 46.640 342.420,45.999 345.930,45.377 350.000 C 44.755 354.070,44.129 357.490,43.987 357.600 C 43.844 357.710,43.305 360.590,42.790 364.000 C 42.274 367.410,41.734 370.290,41.590 370.400 C 41.445 370.510,41.020 372.621,40.645 375.091 C 39.505 382.595,39.104 382.409,56.361 382.371 C 71.249 382.337,71.493 382.291,72.122 379.372 C 72.309 378.507,72.568 377.530,72.697 377.200 C 72.920 376.631,73.529 373.376,76.553 356.600 C 77.267 352.640,77.966 349.130,78.106 348.800 C 78.246 348.470,78.742 345.680,79.208 342.600 C 79.673 339.520,80.168 336.730,80.306 336.400 C 80.445 336.070,80.840 334.180,81.184 332.200 L 81.809 328.600 85.904 328.486 C 88.157 328.423,90.002 328.513,90.004 328.686 C 90.016 329.652,88.597 337.832,88.388 338.000 C 88.251 338.110,87.650 341.350,87.052 345.200 C 86.453 349.050,85.799 352.560,85.598 353.000 C 85.397 353.440,84.854 356.320,84.392 359.400 C 83.930 362.480,83.390 365.360,83.192 365.800 C 81.306 369.999,80.908 380.653,82.600 381.641 C 84.001 382.459,116.400 382.803,116.400 382.000 C 116.400 381.780,116.657 381.600,116.971 381.600 C 118.081 381.600,118.739 380.378,119.014 377.804 C 119.168 376.372,119.427 375.200,119.590 375.200 C 119.753 375.200,120.114 373.537,120.391 371.505 C 121.063 366.591,121.542 365.456,121.575 368.700 C 121.589 370.075,121.754 371.200,121.943 371.200 C 122.132 371.200,122.414 373.214,122.569 375.675 C 122.877 380.534,123.209 381.600,124.414 381.600 C 124.846 381.600,125.200 381.780,125.200 382.000 C 125.200 382.259,129.881 382.390,138.500 382.371 C 155.955 382.332,154.928 382.914,153.995 373.600 C 153.719 370.850,153.361 368.420,153.199 368.200 C 153.037 367.980,152.499 364.020,152.004 359.400 C 151.508 354.780,150.945 350.829,150.752 350.620 C 150.084 349.898,150.412 348.997,151.704 348.002 C 152.417 347.454,153.763 346.194,154.696 345.202 C 156.353 343.441,156.802 343.302,156.002 344.797 C 154.577 347.459,153.524 364.779,154.553 368.640 C 155.636 372.706,158.889 376.948,162.194 378.602 C 163.071 379.041,164.016 379.612,164.294 379.872 C 164.837 380.377,168.705 381.600,169.762 381.600 C 170.113 381.600,170.400 381.769,170.400 381.975 C 170.400 382.181,170.985 382.422,171.700 382.511 C 172.415 382.599,134.075 382.701,86.500 382.736 L 0.000 382.800 0.000 398.000 L 0.000 413.200 146.700 413.192 C 242.724 413.187,294.367 413.045,296.200 412.783 C 299.450 412.316,304.109 411.209,304.400 410.834 C 304.510 410.692,305.905 410.058,307.500 409.424 C 309.095 408.791,310.400 408.143,310.400 407.985 C 310.400 407.827,310.921 407.481,311.558 407.217 C 312.195 406.954,313.050 406.432,313.458 406.058 C 313.866 405.684,314.830 404.950,315.600 404.427 C 316.370 403.904,317.180 403.275,317.400 403.029 C 317.620 402.783,318.275 402.216,318.855 401.769 C 320.027 400.866,325.288 394.860,326.328 393.239 C 326.694 392.667,327.310 391.851,327.697 391.425 C 328.084 390.998,328.400 390.499,328.400 390.315 C 328.400 390.131,329.016 389.085,329.769 387.991 C 330.522 386.896,331.346 385.371,331.600 384.600 C 331.854 383.830,332.205 383.200,332.379 383.200 C 332.554 383.200,333.190 381.805,333.794 380.100 C 334.398 378.395,335.026 376.910,335.190 376.800 C 335.354 376.690,335.896 375.430,336.395 374.000 C 336.893 372.570,337.455 371.206,337.643 370.968 C 337.831 370.731,338.426 369.381,338.965 367.968 C 339.504 366.556,340.384 364.500,340.920 363.400 C 341.455 362.300,342.032 360.950,342.201 360.400 C 342.370 359.850,342.630 359.310,342.779 359.200 C 342.927 359.090,343.572 357.740,344.211 356.200 C 344.850 354.660,345.497 353.310,345.648 353.200 C 345.799 353.090,346.390 352.010,346.963 350.800 C 348.502 347.546,352.616 340.429,353.206 340.000 C 353.357 339.890,353.932 339.080,354.485 338.200 C 356.509 334.976,361.659 329.604,363.773 328.511 C 364.426 328.173,365.208 327.650,365.509 327.348 C 366.772 326.085,367.193 327.048,366.249 329.039 C 365.946 329.677,365.272 331.910,364.750 334.000 C 364.228 336.090,363.684 337.890,363.542 338.000 C 363.162 338.293,362.312 341.645,362.555 341.888 C 362.911 342.245,364.787 341.613,365.519 340.890 C 365.903 340.510,367.158 339.764,368.309 339.232 C 369.459 338.699,370.400 338.147,370.400 338.005 C 370.400 337.863,371.480 337.231,372.800 336.600 C 374.120 335.969,375.200 335.318,375.200 335.153 C 375.200 334.989,375.605 334.730,376.100 334.578 C 376.595 334.426,378.012 333.682,379.250 332.925 C 381.620 331.475,382.596 330.919,386.064 329.048 C 387.239 328.414,388.290 327.762,388.400 327.600 C 388.510 327.438,389.590 326.808,390.800 326.200 C 392.010 325.592,393.090 324.971,393.200 324.820 C 393.310 324.669,394.255 324.136,395.300 323.637 C 396.345 323.137,397.200 322.565,397.200 322.364 C 397.200 322.164,397.450 322.000,397.756 322.000 C 398.061 322.000,398.727 321.664,399.234 321.253 L 400.157 320.506 399.018 317.953 C 398.392 316.549,397.745 315.310,397.580 315.200 C 397.299 315.012,396.739 313.971,393.800 308.169 C 393.140 306.866,392.499 305.710,392.375 305.600 C 392.250 305.490,389.910 301.219,387.175 296.110 C 382.063 286.565,381.383 285.724,380.364 287.700 M387.335 308.550 C 393.222 319.418,392.964 318.427,390.300 319.905 C 389.145 320.545,384.602 323.155,380.204 325.705 C 375.805 328.254,372.151 330.284,372.081 330.215 C 372.012 330.146,372.541 328.094,373.255 325.655 C 374.780 320.451,374.863 320.612,370.672 320.609 C 358.818 320.600,348.956 331.856,336.046 360.128 C 335.361 361.628,334.800 362.928,334.800 363.016 C 334.800 363.104,334.368 364.127,333.841 365.288 C 333.314 366.450,332.066 369.380,331.069 371.800 C 322.872 391.686,313.919 401.617,300.000 406.265 L 296.600 407.400 151.100 407.503 L 5.600 407.605 5.600 398.005 L 5.600 388.404 150.500 388.302 L 295.400 388.200 297.713 387.326 C 305.013 384.566,308.255 380.178,312.748 366.968 C 318.794 349.193,318.799 348.322,312.989 326.000 C 310.437 316.194,308.800 308.842,308.800 307.186 C 308.800 306.230,327.660 305.927,328.246 306.874 C 328.407 307.134,328.765 313.092,329.041 320.112 C 329.318 327.133,329.633 332.966,329.742 333.075 C 329.982 333.316,331.418 332.020,342.230 321.800 C 354.555 310.151,357.290 308.901,375.153 306.761 L 379.307 306.263 380.226 304.232 C 380.731 303.114,381.267 301.525,381.417 300.700 C 381.829 298.427,381.906 298.529,387.335 308.550 M207.028 307.207 C 220.731 310.712,222.204 316.973,216.156 346.000 C 211.038 370.558,203.787 377.280,182.400 377.293 C 161.852 377.306,157.357 371.544,160.952 349.800 C 165.396 322.916,167.877 316.722,176.481 311.032 C 183.344 306.493,197.370 304.737,207.028 307.207 M145.000 307.170 C 153.585 308.434,157.040 312.547,156.953 321.400 C 156.851 331.831,152.696 340.962,146.393 344.605 C 144.322 345.802,144.252 344.180,147.392 367.771 C 147.947 371.934,148.400 375.579,148.400 375.871 C 148.400 376.296,146.396 376.400,138.200 376.400 C 128.398 376.400,128.000 376.370,128.000 375.630 C 128.000 373.030,125.897 352.155,125.574 351.552 C 124.427 349.408,119.572 349.411,118.424 351.556 C 118.067 352.222,117.429 355.477,114.810 370.000 C 114.353 372.530,113.891 375.005,113.782 375.500 L 113.585 376.400 100.392 376.400 C 93.137 376.400,87.203 376.265,87.206 376.100 C 87.213 375.775,88.706 367.575,91.011 355.200 C 91.810 350.910,92.981 344.610,93.612 341.200 C 94.243 337.790,95.128 333.030,95.580 330.623 C 97.119 322.407,97.571 322.800,86.600 322.800 C 76.138 322.800,77.176 321.978,75.409 331.660 C 74.672 335.697,73.407 342.510,72.597 346.800 C 71.787 351.090,70.614 357.390,69.990 360.800 C 69.366 364.210,68.483 368.970,68.028 371.377 C 67.573 373.785,67.200 375.900,67.200 376.077 C 67.200 376.255,62.520 376.400,56.800 376.400 C 51.080 376.400,46.400 376.270,46.400 376.111 C 46.400 375.756,48.723 363.219,52.609 342.600 C 56.651 321.158,56.966 322.800,48.805 322.800 C 45.795 322.800,43.245 322.712,43.138 322.604 C 42.947 322.414,45.365 308.390,45.771 307.332 C 46.012 306.703,140.777 306.548,145.000 307.170 M247.735 317.300 C 247.880 323.075,247.999 333.458,247.999 340.374 C 248.000 352.733,248.015 352.964,248.870 353.874 C 250.935 356.073,252.518 354.828,254.055 349.800 C 254.727 347.600,256.143 343.010,257.202 339.600 C 258.260 336.190,259.969 330.610,261.000 327.200 C 262.031 323.790,263.299 319.650,263.819 318.000 C 264.338 316.350,265.336 313.155,266.035 310.900 L 267.307 306.800 281.296 306.800 C 294.462 306.800,295.269 306.841,294.998 307.500 C 294.839 307.885,294.199 309.550,293.575 311.200 C 292.952 312.850,291.740 316.000,290.882 318.200 C 290.025 320.400,286.974 328.230,284.103 335.600 C 281.232 342.970,278.215 350.710,277.398 352.800 C 274.389 360.499,269.961 371.866,269.100 374.100 L 268.214 376.400 249.107 376.400 L 230.000 376.400 230.000 341.600 L 230.000 306.800 238.736 306.800 L 247.472 306.800 247.735 317.300 M115.726 319.583 C 113.695 320.447,112.981 333.241,114.889 334.577 C 115.951 335.321,128.374 335.480,130.888 334.782 C 136.913 333.109,138.096 323.051,132.600 320.223 C 130.828 319.311,117.550 318.808,115.726 319.583 M190.223 320.572 C 186.390 321.997,185.345 323.562,183.494 330.654 C 179.997 344.052,178.205 358.622,179.761 360.997 C 181.966 364.363,189.274 364.492,192.804 361.228 C 196.205 358.082,202.027 328.929,200.206 324.161 C 198.933 320.826,194.159 319.110,190.223 320.572 M130.328 326.959 C 130.501 329.079,130.212 329.187,124.300 329.194 L 119.200 329.200 119.200 328.224 C 119.200 327.687,119.380 327.136,119.600 327.000 C 119.820 326.864,120.000 326.398,120.000 325.964 C 120.000 325.215,120.254 325.182,125.100 325.288 L 130.200 325.400 130.328 326.959 M195.200 327.652 C 195.200 328.509,195.041 329.523,194.847 329.905 C 194.653 330.287,194.102 333.461,193.623 336.957 C 193.144 340.453,192.509 344.053,192.213 344.957 C 191.916 345.861,191.274 348.535,190.785 350.900 C 190.296 353.265,189.739 355.200,189.548 355.200 C 189.357 355.200,189.200 355.538,189.200 355.951 C 189.200 357.025,188.336 357.598,186.552 357.706 L 185.000 357.800 185.106 354.800 C 185.226 351.379,186.777 339.902,187.160 339.600 C 187.299 339.490,187.845 337.240,188.373 334.600 C 188.901 331.960,189.467 329.710,189.630 329.599 C 189.792 329.489,190.088 328.769,190.286 327.999 C 191.000 325.225,195.200 324.928,195.200 327.652 " stroke="none" fill="#000000" fill-rule="evenodd"></path></g></svg>